<svg xmlns="http://www.w3.org/2000/svg" xmlns:xlink="http://www.w3.org/1999/xlink" version="1.1" id="Calque_1" x="0px" y="0px" width="288px" height="288px" viewBox="0 0 288 288" enable-background="new 0 0 288 288" xml:space="preserve">
<g>
	<path d="M117.722,18c3.227,2.063,4.87,5.165,8.37,5.864c0.335-1.593,0.06-3.297,0.691-4.945c2.258,0.639,3.392,2.582,4.765,4.081   c2.238,2.444,4.555,4.152,8.112,4.098c2.159-0.033,4.229,1.033,6.198,2.055c4.359,2.263,8.598,4.712,12.44,7.792   c1.191,0.954,2.466,1.702,4.108,2.004c-1.122,1.566-2.784,1.548-4.565,1.931c1.355,1.449,3.513,1.05,4.617,2.716   c-0.752,0.125-1.378,0.229-2.173,0.361c1.83,1.836,4.052,1.652,6.161,1.631c0.116,1.339-1.043,1.658-1.614,2.414   c6.769,1.84,6.769,1.84,7.72,3.714c-0.611,0.606-1.442,0.04-2.239,0.439c0.684,3.053,3.279,3.958,5.812,4.97   c-1.451,1.043-2.168,1.101-5.269,0.504c2.093,4.318,2.163,4.622,1.533,7.186c-1.163-1.01-2.177-2.165-3.913-2.304   c-0.113,0.864,0.744,1.243,0.932,1.879c0.285,0.965,1.941,1.936,0.073,3.004c-0.141,0.081-0.057,0.744,0.072,1.078   c1.053,2.727,1.013,5.851,3.158,8.211c-2.166,0.43-2.706,0.236-6.151-2.196c0.654,2.369,2.713,3.897,2.817,6.306   c-0.949,0.038-1.327-1.075-2.392-0.925c0.47,2.72,2.15,4.444,4.402,5.816c-1.018,1.3-2.272,0.839-3.682,0.844   c2.034,2.974,6.172,4.891,4.38,9.412c-1.021-0.073-1.22-1.142-2.217-1.555c1.014,3.383,1.171,6.825,2.843,9.948   c-1.442,0.442-2.314-0.538-3.494-1.18c-0.016,0.885,0.59,1.368,0.9,1.959c0.436,0.832,0.451,0.823-0.429,1.437   c-0.42,0.293-0.212,0.648-0.067,0.971c0.502,1.123,1.391,1.917,2.381,2.527c-0.39,1.121-1.45,0.293-1.985,0.928   c0.727,1.15,2.037,1.837,2.526,3.161c0.269,0.729,0.545,1.571,0.037,2.18c-0.614,0.735-0.952-0.883-1.835-0.279   c0.207,2.467,1.55,4.609,2.605,6.827c0.646,1.358,1.473,2.667,2.414,3.841c6.698,8.36,13.647,16.476,22.941,22.145   c7.442,4.539,12.192,11.207,15.314,19.184c0.166,0.423,0.422,0.86,0.421,1.291c-0.011,4.456,2.713,7.511,5.251,10.744   c2.661,3.39,5.091,6.965,7.552,10.508c0.639,0.92,1.164,1.978,1.481,3.05c0.867,2.928,2.291,5.517,4.421,7.798   c-1.129,0.704-2.284,0.034-3.586,0.385c0.759,0.98,1.425,1.841,2.077,2.685c-0.452,0.927-1.085-0.293-1.63,0.321   c0.779,1.726,2.286,2.587,4.091,3.081c-0.379,1.154-1.384,1.092-2.479,1.388c1.678,1.255,3.496,1.706,4.421,3.289   c0.387,0.662,0.904,1.427,0.562,2.111c-0.541,1.081-1.249-0.576-1.943-0.049c-0.567,2.576,1.213,4.163,2.781,6.025   c-1.777,0.225-2.835-0.796-4.01-1.528c-0.711,4.158-0.711,4.158,4.026,8.202c-1.325,0.712-1.325,0.712-4.128,0.337   c-0.383,0.745,1.543,4.116-1.773,1.626c-0.576,2.853,1.152,4.465,2.76,6.323c-1.81,0.232-2.868-0.813-4.424-1.706   c0.73,3.585,3.206,5.524,5.432,7.64c-5.726,2.918-13.927-1.045-19.577-9.442c-0.117,0.807,0.66,1.81-0.123,2.274   c-0.73,0.433-1.557-0.305-2.281-0.671c-5.315-2.686-9.026-10.866-7.702-16.914c0.93-4.252,2.77-8.167,4.479-12.129   c0.961-2.228,1.919-4.451,2.381-6.853c0.291-1.51,0.355-3.025,0.006-4.515c-0.194-0.83-0.053-2.129-1.051-2.274   c-0.834-0.121-1.073,1.104-1.494,1.795c-1.905,3.125-4.175,5.876-7.04,8.242c-4.162,3.437-6.609,7.834-6.116,13.492   c0.305,3.493,0.964,6.916,2.15,10.203c1.616,4.478,0.474,8.03-3.329,10.758c-7.227,5.183-12.66,11.902-17.005,19.587   c-1.227,2.17-2.899,3.921-5.477,4.437c-1.041,0.208-0.864,0.637-0.622,1.424c1.388,4.525,0.297,6.594-4.245,8.046   c-3.078,0.984-6.229,1.424-9.386,0.418c-2.832-0.903-3.537-2.914-2.537-5.707c2.181-6.093,7.046-10.143,11.1-14.784   c3.081-3.527,6.57-6.699,9.057-10.739c-2.391-0.065-3.612,1.148-4.671,3.282c-2.447,4.928-7.801,6.972-13.122,5.417   c-2.79-0.815-3.456-2.11-2.146-4.727c2.631-5.255,6.397-9.666,11.254-12.886c4.116-2.729,6.653-6.712,9.652-10.365   c0.752-0.916,0.574-1.85,0.16-2.768c-2.258-4.998-3.107-10.503-6.402-15.182c-3.39-4.813-4.163-10.449-2.687-16.319   c0.853-3.395,0.42-4.086-2.684-5.819c-5.105-2.851-10.707-4.578-15.985-7.047c-12.553-5.871-22.061-15.05-29.19-26.791   c-1.494-2.46-2.861-4.784-6.163-4.938c-0.795-0.037-1.631-0.418-2.344-0.825c-7.488-4.272-15.304-7.956-22.581-12.603   c-0.831-0.531-1.67-1.309-2.675-0.725c-1.025,0.596-0.755,1.732-0.632,2.697c0.363,2.854,1.688,5.31,3.206,7.695   c1.754,2.755,3.58,5.492,3.015,9.041c-0.181,1.136,0.844,1.312,1.572,1.62c2.485,1.051,3.295,2.114,2.432,4.484   c-1.304,3.578-2.218,7.208-2.776,10.962c-0.246,1.658-1.304,2.082-2.502,0.818c-1.833-1.934-3.883-3.602-5.915-5.303   c-0.445-0.373-0.888-0.928-1.014-1.473c-0.786-3.403-2.807-6.172-4.502-9.116c-0.998-1.734-1.29-3.697-1.584-5.656   c-0.961-6.401-2.723-12.586-5.366-18.492c-1.153-2.575-1.212-4.876,0.469-7.261c1.365-1.938,1.573-4.672,3.974-6.116   c-2.365,0.759-4.743,1.48-7.089,2.294c-1.188,0.412-1.597,1.493-1.968,2.614c-1.587,4.795-3.12,5.884-8.147,5.663   c-2.192-0.096-4.404,0.103-6.576-0.37c-3.179-0.691-3.889-2.611-1.771-4.994c1.304-1.468,2.726-2.76,3.2-4.847   c0.28-1.231,1.688-1.671,2.794-2.15c2.633-1.139,5.177-2.249,7.281-4.428c1.84-1.906,4.613-2.542,7.146-3.321   c4.919-1.513,9.925-2.79,14.081-6.078c0.458-0.362,1.105-0.737,1.643-0.707c4.151,0.229,8.492-0.558,11.969,2.88   c2.427,2.399,5.612,3.851,8.372,5.85c0.792,0.574,1.266,0.249,1.682-0.377c2.623-3.947,6-7.207,9.415-10.441   c0.538-0.51,0.963-1.185,1.298-1.855c3.185-6.362,3.466-13.117,2.388-19.962c-0.432-2.746-1.771-3.465-4.425-2.727   c-3.423,0.951-6.788,2.109-10.176,3.187c-1.675,0.533-2.734,1.836-3.851,3.08c-2.388,2.661-3.784,2.668-7.219,1.944   c-2.694-0.567-4.626-1.575-5.813-4.015c-1.119-2.299-1.109-4.785-1.476-7.248c-0.649-4.35,1.522-6.87,4.323-9.553   c2.734-2.619,5.431-5.283,8.198-7.873c1.952-1.827,3.199-4.09,4.49-6.448c1.887-3.446,4.197-6.807,7.75-8.906   c4.098-2.42,4.09-2.382,3.453-6.986C118.03,22.251,117.941,20.45,117.722,18z M81.149,108.856c1.276,0.25,2.496,0.599,3.749,0.878   c3.02,0.673,6.019,1.379,8.911,2.498c0.488,0.189,1.102,0.414,1.497-0.023c0.526-0.581-0.068-1.129-0.332-1.612   c-2.157-3.948-4.908-4.883-9.133-3.244C84.313,107.947,82.715,108.361,81.149,108.856z"/>
</g>
</svg>